<?xml version="1.0" encoding="utf-8"?>
<!-- Generator: Adobe Illustrator 19.2.1, SVG Export Plug-In . SVG Version: 6.00 Build 0)  -->
<svg version="1.1" xmlns="http://www.w3.org/2000/svg" xmlns:xlink="http://www.w3.org/1999/xlink" x="0px" y="0px"
	 viewBox="0 0 1190.6 841.9" style="enable-background:new 0 0 1190.6 841.9;" xml:space="preserve">
<style type="text/css">
	.st0{fill:#FFFFFF;}
	.st1{fill:none;}
	.st2{fill:#006633;}
	.st3{font-family:'Organocoloredversionat:logomagazin.comorgano-font';}
	.st4{font-size:48px;}
	.st5{letter-spacing:2.2;}
	.st6{font-family:'BodoniSvtyTwoOSITCTT-Book';}
	.st7{font-size:45px;}
	.st8{letter-spacing:-1.1;}
</style>
<g id="Layer_2">
	<g>
		<polygon points="680.1,458 680.1,458.2 677.2,454 677.2,454 670.1,443.9 668.9,442.2 668.9,442 670,443.7 677.1,453.7 
			677.1,453.7 		"/>
	</g>
	<g>
		<path class="st0" d="M680.1,458v0.2l-3-4.2v0c0-0.1-0.1-0.2-0.1-0.3L680.1,458z"/>
		<path class="st0" d="M783.8,416.4V460c0,0,0,0,0,0L783.8,416.4L783.8,416.4z"/>
		<path d="M677.1,453.7L677.1,453.7l-7-10c0,0.1,0,0.2,0,0.2l7.1,10.1v0l3,4.2V458L677.1,453.7z M783.8,416.4v58.3c0,0,0,0,0,0
			L783.8,416.4L783.8,416.4z"/>
		<path d="M785.3,398.5L785.3,398.5l-13.1-18.6l0,0c-9.6-17-24.4-27.9-40.9-27.9c-25.2,0-46.3,25.4-51.3,59.1
			c-0.8,5-1.2,10.3-1.2,15.6c0,3.5,0.2,6.8,0.5,10.2l-5.4-7.7l-4.3-6.2h0v-9.8c0.1-0.7,0.2-1.4,0.2-2.1
			c5.2-41.6,30.8-73.2,61.5-73.2c30.1,0,55.3,30.5,61.1,70.9L785.3,398.5z"/>
	</g>
	<g>
		<polygon points="630.6,387.5 630.6,387.7 629.4,386 629.5,386 		"/>
	</g>
	<g>
		<path d="M630.6,533.9c0.6,3,0.8,6.1,0.8,9.3c0,20-11.4,36.2-25.5,36.2c-14,0-25.5-16.3-25.5-36.2c0-0.4,0-0.8,0-1.2h9.9
			c0,0.4,0,0.8,0,1.2c0,12.2,7,22.1,15.5,22.1c8.6,0,15.5-9.9,15.5-22.1c0-2.5-0.3-5-0.9-7.2v-61.5c-11.2,23.5-30.2,39-51.6,39
			c-13.7,0-26.3-6.3-36.6-16.9l-6.2-8.9l-8.2-11.7l0,0l-52.3-75.3v0l-7.7-11.1l0,0l-18.2-26.2c1.6-0.5,3.2-1,4.8-1.6
			c0.5-0.2,1-0.4,1.5-0.6c1-0.4,2-0.8,2.9-1.2l7,10l51.9,73.6l7.4,10.5l0,0l17.2,24.5l0.2,0.3l0,0c9.4,12.7,22.1,20.5,36.1,20.5
			c0.4,0,0.8,0,1.2,0c0.2,0,0.3,0,0.5,0c0.2,0,0.3,0,0.5,0c0.2,0,0.5,0,0.8,0c0.3,0,0.7,0,1-0.1c0.1,0,0.2,0,0.4,0
			c0.3,0,0.6-0.1,0.8-0.1l0.2,0c0.2,0,0.4,0,0.6-0.1c0.1,0,0.1,0,0.2,0c0.3,0,0.5-0.1,0.8-0.1c0.2,0,0.4-0.1,0.6-0.1
			c0.1,0,0.3-0.1,0.4-0.1c0.1,0,0.3,0,0.4-0.1c0.2-0.1,0.5-0.1,0.7-0.2l0.6-0.1c0.3-0.1,0.6-0.2,0.8-0.2c0.1,0,0.2-0.1,0.3-0.1
			c0,0,0.1,0,0.1,0c0.3-0.1,0.7-0.2,1-0.3c0,0,0.1,0,0.1,0c0.4-0.1,0.8-0.3,1.2-0.4c0.4-0.2,0.8-0.3,1.2-0.5
			c0.3-0.1,0.6-0.2,0.9-0.4c0.3-0.1,0.6-0.3,0.9-0.4c0.3-0.1,0.6-0.3,0.9-0.4c0.1-0.1,0.2-0.1,0.3-0.2c0.4-0.2,0.9-0.4,1.3-0.7
			c0,0,0,0,0,0c0.2-0.1,0.5-0.2,0.7-0.4c0.5-0.3,1-0.6,1.5-0.9c0.1,0,0.1-0.1,0.2-0.1c0.3-0.2,0.7-0.4,1-0.6
			c0.2-0.2,0.5-0.3,0.8-0.5c0.4-0.3,0.8-0.5,1.1-0.8c0.2-0.2,0.5-0.4,0.8-0.6c0.2-0.2,0.4-0.3,0.7-0.5c0.4-0.3,0.9-0.7,1.3-1.1
			c0.1-0.1,0.3-0.2,0.4-0.3c0.1-0.1,0.3-0.2,0.4-0.4c0.5-0.4,1-0.9,1.5-1.3c0.5-0.4,0.9-0.9,1.4-1.4c0,0,0,0,0,0
			c0.6-0.6,1.2-1.2,1.7-1.8c0.4-0.4,0.7-0.8,1.1-1.2c0.3-0.3,0.5-0.6,0.8-0.9c0.3-0.3,0.6-0.7,0.9-1.1c0.2-0.3,0.5-0.6,0.8-1
			c0.2-0.3,0.5-0.7,0.7-1c0.6-0.8,1.1-1.5,1.6-2.3c0.3-0.4,0.5-0.8,0.8-1.2c0.2-0.3,0.3-0.5,0.5-0.8c0.5-0.9,1.1-1.7,1.6-2.6
			c0.5-0.8,0.9-1.6,1.3-2.4c0.4-0.7,0.7-1.4,1.1-2.2c0.4-0.7,0.7-1.5,1.1-2.2c0.2-0.5,0.4-1,0.7-1.5c0,0,0,0,0-0.1
			c0.2-0.5,0.4-1,0.6-1.5c0.2-0.5,0.4-1.1,0.6-1.6c0.2-0.5,0.4-1,0.6-1.5c0,0,0-0.1,0-0.1c0.2-0.5,0.3-0.9,0.5-1.4
			c0.2-0.7,0.4-1.3,0.7-2c0.2-0.6,0.4-1.2,0.6-1.8c0.1-0.5,0.3-0.9,0.4-1.4c0.1-0.5,0.3-1,0.4-1.5c0.1-0.5,0.2-0.9,0.4-1.4
			c0.1-0.5,0.2-0.9,0.3-1.4c0.1-0.4,0.2-0.8,0.3-1.2c0.1-0.4,0.2-0.9,0.3-1.3c0-0.1,0-0.1,0-0.2c0.1-0.6,0.2-1.1,0.3-1.7
			c0.2-1.1,0.4-2.2,0.5-3.4c0.1-0.6,0.2-1.2,0.2-1.8c0-0.3,0.1-0.6,0.1-0.9c0-0.4,0.1-0.8,0.1-1.2c0-0.4,0.1-0.8,0.1-1.2
			c0.1-0.5,0.1-1,0.1-1.5c0-0.1,0-0.2,0-0.3c0.1-0.5,0.1-1,0.1-1.5c0.1-1,0.1-2,0.1-3c0-1.3,0.1-2.5,0.1-3.8c0-0.6,0-1.3,0-1.9
			c0-0.6,0-1.3,0-1.9c0-0.5,0-1.1-0.1-1.6c0-0.5,0-1-0.1-1.4c0-0.5-0.1-1-0.1-1.5c0-0.1,0-0.2,0-0.3c0-0.5-0.1-1-0.1-1.5
			c0-0.4-0.1-0.8-0.1-1.2c0-0.4-0.1-0.8-0.1-1.2c0-0.3-0.1-0.6-0.1-0.9v-3l10,14.2l0.8,1.2c0,0.4,0,0.7,0,1.1c0,5-0.3,9.9-0.8,14.6
			V533.9z"/>
		<path d="M620.6,408.1v3c-0.1-0.6-0.2-1.2-0.2-1.8c-0.1-0.4-0.1-0.8-0.2-1.2c0-0.2-0.1-0.4-0.1-0.6c0,0,0-0.1,0-0.1L620.6,408.1z"
			/>
		<path d="M467.2,427.4L467.2,427.4c-2.3,46-29.4,82.4-62.3,82.4c-34.4,0-62.4-39.9-62.4-88.9c0-24.1,6.8-46,17.8-62.1
			c1.6,0.8,3.3,1.6,5.2,2.3c0,0,0.1,0,0.1,0c1.9,0.7,3.9,1.4,6,2c-11.7,13.7-19.2,34.5-19.2,57.7c0,41.2,23.5,74.7,52.5,74.7
			s52.5-33.5,52.5-74.7c0-2.7-0.1-5.4-0.3-8l5.3,7.6L467.2,427.4z"/>
	</g>
	<g>
		<polygon points="793.8,430.6 793.8,508.5 783.8,508.5 783.8,416.4 788.7,423.4 788.7,423.4 793.7,430.5 		"/>
	</g>
	<line class="st1" x1="509.4" y1="465.2" x2="509.4" y2="465.2"/>
	<line class="st1" x1="533.1" y1="479.6" x2="533.1" y2="479.6"/>
	<path d="M680.1,458.2v50.3h-11.2v-46.2l-10.6-16l-2.3-3.3v0l-5.5-7.8l-0.9-1.3l-19-27L630,406l-9.4-13.4l-0.8-1.1l-0.9-1.3
		l-2.4-3.4l-13.6-19.1c0,0,0-0.1-0.1-0.1c0,0,0,0,0,0c0,0,0,0,0,0c-0.1-0.2-0.3-0.4-0.5-0.6l0,0c0,0-0.1-0.1-0.1-0.1
		c0,0-0.1-0.1-0.1-0.1c0,0,0-0.1-0.1-0.1v0c-0.3-0.3-0.6-0.6-0.8-1c0,0,0,0-0.1-0.1c-0.6-0.6-1.1-1.2-1.7-1.8
		c-0.3-0.3-0.5-0.5-0.8-0.8c-0.2-0.2-0.5-0.4-0.7-0.7c0,0-0.1-0.1-0.1-0.1c-0.4-0.4-0.8-0.7-1.1-1c-0.3-0.2-0.6-0.5-0.9-0.8
		c0,0-0.1-0.1-0.1-0.1c-0.4-0.4-0.9-0.8-1.4-1.1c-0.5-0.4-1-0.8-1.5-1.1c-0.4-0.3-0.8-0.5-1.1-0.8c-0.4-0.3-0.8-0.5-1.1-0.8
		c0,0,0,0,0,0c-0.8-0.5-1.6-1-2.4-1.4c0,0-0.1,0-0.1-0.1c-0.3-0.2-0.7-0.4-1-0.5c-0.8-0.4-1.6-0.8-2.4-1.2c-0.3-0.1-0.6-0.3-0.9-0.4
		c-0.2-0.1-0.5-0.2-0.7-0.3c-0.3-0.1-0.7-0.3-1-0.4c-0.4-0.2-0.8-0.3-1.3-0.4c-0.4-0.1-0.8-0.3-1.2-0.4c-0.3-0.1-0.6-0.2-0.9-0.2
		c-0.3-0.1-0.5-0.1-0.8-0.2c-0.3-0.1-0.6-0.1-0.9-0.2c-0.4-0.1-0.8-0.2-1.1-0.2c-0.2,0-0.3-0.1-0.5-0.1c0,0,0,0,0,0
		c-0.1,0-0.1,0-0.2,0c-0.3,0-0.5-0.1-0.8-0.1c0,0-0.1,0-0.1,0c-0.4-0.1-0.8-0.1-1.2-0.1c0,0-0.1,0-0.1,0c-0.4,0-0.8-0.1-1.3-0.1
		c-0.3,0-0.6,0-0.9,0c-0.1,0-0.2,0-0.3,0s-0.2,0-0.3,0c-0.4,0-0.8,0-1.2,0c-28.9,0-52.5,33.5-52.5,74.7c0,4.1,0.2,8,0.7,11.9
		l-5.6-7.9l0,0l-5-7.1c1.1-47.6,28.7-85.8,62.4-85.8c15.7,0,30,8.2,41,21.8c2.7,3.3,5.1,6.9,7.3,10.8c0.2,0.4,0.4,0.7,0.6,1.1
		c0,0,0,0,0,0c0.2,0.3,0.4,0.6,0.5,1l10.9,15.5l1.2,1.7l38.3,54.5l1.2,1.7l7.1,10.1v0L680.1,458.2z"/>
</g>
<g id="Layer_3">
	<rect x="447" y="637" class="st1" width="367.5" height="131"/>
	<rect x="470" y="453.8" class="st1" width="39.4" height="41.8"/>
	<text transform="matrix(0.9207 0 0 1 470.0343 492.3253)" class="st2 st3 st4 st5">E</text>
	<rect x="634.2" y="451.5" class="st1" width="97.5" height="74.5"/>
	<text transform="matrix(0.9207 0 0 1 634.2071 489.9897)" class="st2 st3 st4 st5">a</text>
	<rect x="636.9" y="520.4" class="st1" width="206.5" height="60.5"/>
	<text transform="matrix(0.9207 0 0 1 636.8851 552.2244)"><tspan x="0" y="0" class="st6 st7 st5">La</tspan><tspan x="48.8" y="0" class="st2 st6 st7 st8">V</tspan><tspan x="75.8" y="0" class="st6 st7 st8">i</tspan><tspan x="85.6" y="0" class="st6 st7 st5">e</tspan><tspan x="107.4" y="0" class="st2 st6 st7 st5">g</tspan><tspan x="130.8" y="0" class="st6 st7 st5">a</tspan><tspan x="151.6" y="0" class="st2 st6 st7 st5">n</tspan></text>
</g>
</svg>
